<svg width="489" height="100" viewBox="0 0 489 100" fill="none" xmlns="http://www.w3.org/2000/svg">
<g clip-path="url(#clip0_473_14)">
<path d="M0.758216 3.79833C0 5.28641 0 7.23442 0 11.1304V73.3871C7.47123 69.1591 8.11017 61.3446 8.74941 53.5264C8.91594 51.4897 9.08249 49.4527 9.36985 47.4788C10.9696 35.568 23.5124 30.402 34.4294 31.2335V31.2322C46.9969 31.547 59.9907 33.3896 72.4765 35.2595C73.8166 35.4343 75.1599 35.6538 76.5034 35.8733C77.9116 36.1033 79.3204 36.3335 80.7256 36.5123C81.5614 36.7321 82.4703 36.83 83.3862 36.9287C85.3259 37.1376 87.2969 37.35 88.6723 38.7304C91.0019 41.3958 88.3848 44.9844 85.2634 44.6585C83.326 44.4706 81.3917 44.4345 79.4548 44.3984C77.8795 44.3691 76.3024 44.3397 74.7206 44.2285C72.6382 44.1873 70.5451 44.1135 68.4485 44.0397C63.7434 43.8739 59.0204 43.7075 54.3625 43.9063C52.2051 43.915 50.6648 46.7589 52.9858 47.8803C54.7834 48.3864 56.6145 48.3864 58.4529 48.3863C59.6571 48.3862 60.8645 48.3862 62.0675 48.5284C63.6339 48.5813 65.2049 48.6487 66.778 48.7163L66.7791 48.7163C69.4828 48.8324 72.1931 48.9488 74.8978 48.9918C76.3897 49.0399 77.8817 49.1013 79.3737 49.1627L79.3748 49.1627C81.1553 49.236 82.9359 49.3093 84.7169 49.3599C85.7565 49.3896 86.7665 49.6573 87.7231 50.1505C89.8284 51.2372 90.0924 54.3339 88.5335 55.9386C86.7564 57.4547 84.394 57.4094 82.0644 57.3648C80.9307 57.3431 79.8047 57.3215 78.7578 57.4801C71.5347 58.0067 63.8395 59.2793 58.1183 64.055C53.6549 67.875 51.7571 73.6862 49.9822 79.1211L49.811 79.6449C47.6259 86.8735 45.5219 93.768 42.8739 100H88.8696C92.7656 100 94.7136 100 96.2017 99.2418C97.5106 98.5748 98.5748 97.5106 99.2418 96.2017C100 94.7136 100 92.7656 100 88.8696V11.1304C100 7.23442 100 5.28641 99.2418 3.79833C98.5748 2.48937 97.5106 1.42516 96.2017 0.758216C94.7136 0 92.7656 0 88.8696 0H11.1304C7.23442 0 5.28641 0 3.79833 0.758216C2.48937 1.42516 1.42516 2.48937 0.758216 3.79833Z" fill="#009BE1"/>
<path d="M24.6478 100C30.7763 94.6459 35.739 87.9933 38.9758 80.4875C39.0935 80.0736 39.3541 79.5424 39.63 78.9801C40.1387 77.9431 40.6996 76.8 40.5124 76.0898C40.3939 75.8107 40.3925 75.5136 40.391 75.2182C40.3892 74.8342 40.3874 74.4531 40.1283 74.1183C40.0378 73.9819 39.9981 73.8345 40.0316 73.6511C40.2732 71.8407 37.3352 72.8097 36.961 74.1703C33.9994 82.1827 29.5719 89.7341 23.2819 95.5842C21.5711 97.1984 19.7338 98.6512 17.8202 100H24.6478Z" fill="#009BE1"/>
<path d="M0.000128832 89.4993C1.70831 88.8262 3.42527 88.175 5.15052 87.5458C9.97947 85.7387 14.8875 84.1641 19.7945 82.5899L20.044 82.5098C22.6177 81.8023 22.5087 78.314 19.5706 78.3834C12.8988 80.0275 6.40837 82.3357 0 84.8481V88.8696C0 89.0854 0 89.2952 0.000128832 89.4993Z" fill="#009BE1"/>
<path fill-rule="evenodd" clip-rule="evenodd" d="M33.9411 40.1938C49.2658 40.1331 48.9102 63.2397 34.1295 63.122C18.9845 63.485 18.4145 40.024 33.9411 40.1938ZM34.0753 44.111C22.1088 44.5757 24.6528 61.4332 36.3021 58.9537C44.3405 56.0256 42.6813 44.1953 34.0753 44.111Z" fill="#009BE1"/>
<path d="M161.944 87C159.206 87 156.669 86.5978 154.333 85.7935C151.996 84.9891 149.893 83.8496 148.023 82.375C146.154 80.8333 144.552 78.9565 143.216 76.7446H142.816L142.115 85.7935H132V15.413H144.018V42.962C145.62 40.683 147.857 38.7391 150.727 37.1304C153.665 35.5217 157.17 34.7174 161.243 34.7174C166.25 34.7174 170.523 35.8569 174.061 38.1359C177.667 40.4149 180.404 43.5317 182.273 47.4864C184.21 51.3741 185.178 55.8315 185.178 60.8587C185.178 65.8859 184.21 70.3768 182.273 74.3315C180.404 78.2192 177.7 81.3025 174.162 83.5815C170.69 85.8605 166.617 87 161.944 87ZM158.539 76.9456C161.476 76.9456 164.013 76.2754 166.15 74.9348C168.353 73.5272 170.056 71.6168 171.257 69.2038C172.459 66.7908 173.06 63.9755 173.06 60.7582C173.06 57.6078 172.459 54.8261 171.257 52.413C170.056 50 168.353 48.1232 166.15 46.7826C164.013 45.375 161.476 44.6712 158.539 44.6712C155.601 44.6712 153.031 45.375 150.828 46.7826C148.624 48.1232 146.922 50 145.72 52.413C144.518 54.8261 143.917 57.6413 143.917 60.8587C143.917 64.0091 144.518 66.7908 145.72 69.2038C146.922 71.6168 148.624 73.5272 150.828 74.9348C153.031 76.2754 155.601 76.9456 158.539 76.9456Z" fill="#171717"/>
<path d="M189.142 85.7935V15.413H201.16V85.7935H189.142Z" fill="#171717"/>
<path d="M225.391 87C221.385 87 217.947 86.1621 215.076 84.4864C212.205 82.7437 210.002 80.1966 208.466 76.8451C206.931 73.4266 206.163 69.2373 206.163 64.2772V35.9239H218.181V63.0706C218.181 67.4946 219.082 70.913 220.885 73.3261C222.687 75.6721 225.491 76.8451 229.297 76.8451C231.767 76.8451 233.937 76.2418 235.806 75.0353C237.743 73.8288 239.245 72.1196 240.313 69.9076C241.448 67.6286 242.016 64.8804 242.016 61.663V35.9239H254.033V85.7935H243.718L242.717 77.8505H242.316C240.714 80.6657 238.51 82.9112 235.706 84.587C232.969 86.1956 229.531 87 225.391 87Z" fill="#171717"/>
<path d="M283.049 87C278.042 87 273.602 85.9275 269.729 83.7826C265.924 81.5706 262.92 78.5543 260.716 74.7337C258.58 70.846 257.512 66.3216 257.512 61.1603C257.512 55.9321 258.58 51.3406 260.716 47.3859C262.853 43.4312 265.824 40.3478 269.629 38.1359C273.502 35.8569 278.008 34.7174 283.149 34.7174C288.023 34.7174 292.296 35.8234 295.968 38.0353C299.707 40.1803 302.577 43.0625 304.58 46.6821C306.65 50.3016 307.685 54.3904 307.685 58.9484C307.685 59.6187 307.685 60.356 307.685 61.1603C307.685 61.9647 307.618 62.836 307.485 63.7745H266.224V56.0326H295.567C295.367 52.346 294.098 49.4638 291.762 47.3859C289.425 45.2409 286.521 44.1685 283.049 44.1685C280.579 44.1685 278.275 44.7382 276.139 45.8777C274.069 46.9502 272.4 48.6259 271.132 50.9049C269.93 53.1168 269.329 55.9656 269.329 59.4511V62.3668C269.329 65.4502 269.93 68.0978 271.132 70.3098C272.333 72.5217 273.969 74.231 276.039 75.4375C278.175 76.577 280.479 77.1467 282.949 77.1467C285.686 77.1467 287.99 76.5435 289.859 75.337C291.728 74.0634 293.13 72.3542 294.065 70.2092H306.283C305.348 73.4266 303.779 76.3089 301.576 78.856C299.44 81.336 296.802 83.3134 293.664 84.788C290.527 86.2627 286.988 87 283.049 87Z" fill="#171717"/>
<path d="M356.566 87C353.628 87 350.924 86.5643 348.454 85.6929C346.05 84.7545 343.947 83.5145 342.145 81.9728C340.342 80.3641 338.907 78.5543 337.838 76.5435L337.238 85.7935H330.828V13.4022H337.838V44.269C339.508 41.3868 341.911 38.9402 345.049 36.9293C348.187 34.9185 352.026 33.913 356.566 33.913C361.506 33.913 365.813 35.086 369.485 37.4321C373.157 39.711 375.961 42.8614 377.897 46.8831C379.9 50.8379 380.901 55.3623 380.901 60.4565C380.901 65.5507 379.9 70.1087 377.897 74.1304C375.894 78.1522 373.057 81.3025 369.385 83.5815C365.779 85.8605 361.506 87 356.566 87ZM356.065 80.8668C359.604 80.8668 362.675 80.029 365.279 78.3532C367.882 76.6775 369.952 74.298 371.488 71.2147C373.023 68.1313 373.791 64.5453 373.791 60.4565C373.791 56.3007 373.023 52.7147 371.488 49.6984C369.952 46.615 367.849 44.2355 365.178 42.5598C362.575 40.8841 359.537 40.0462 356.065 40.0462C352.593 40.0462 349.489 40.8841 346.751 42.5598C344.081 44.2355 341.978 46.615 340.442 49.6984C338.973 52.7817 338.239 56.3677 338.239 60.4565C338.239 64.6123 338.973 68.2319 340.442 71.3152C341.978 74.3315 344.081 76.6775 346.751 78.3532C349.489 80.029 352.593 80.8668 356.065 80.8668Z" fill="#171717"/>
<path d="M390.928 85.7935V35.1196H397.838V85.7935H390.928ZM394.433 23.1549C393.031 23.1549 391.829 22.6857 390.828 21.7473C389.826 20.7418 389.325 19.5018 389.325 18.0272C389.325 16.4855 389.793 15.279 390.727 14.4076C391.729 13.4692 392.931 13 394.333 13C395.735 13 396.937 13.4692 397.938 14.4076C398.939 15.279 399.44 16.4855 399.44 18.0272C399.44 19.5018 398.939 20.7418 397.938 21.7473C397.003 22.6857 395.835 23.1549 394.433 23.1549Z" fill="#171717"/>
<path d="M410.1 85.7935V35.1196H416.51L417.01 44.8723C418.079 42.5263 419.514 40.5489 421.317 38.9402C423.119 37.3315 425.289 36.0915 427.826 35.2201C430.363 34.3487 433.234 33.913 436.439 33.913V41.2527H433.735C431.598 41.2527 429.529 41.5543 427.526 42.1576C425.523 42.6938 423.754 43.6322 422.218 44.9728C420.682 46.3134 419.447 48.1232 418.513 50.4022C417.578 52.6812 417.111 55.5299 417.111 58.9484V85.7935H410.1Z" fill="#171717"/>
<path d="M463.162 87C458.288 87 454.016 85.8605 450.343 83.5815C446.738 81.2355 443.934 78.0516 441.931 74.0299C439.928 70.0082 438.927 65.4502 438.927 60.356C438.927 55.2618 439.928 50.7373 441.931 46.7826C443.934 42.7609 446.772 39.6105 450.444 37.3315C454.116 35.0525 458.389 33.913 463.262 33.913C467.535 33.913 471.274 34.8514 474.479 36.7283C477.75 38.538 480.254 41.1187 481.99 44.4701V13.4022H489V85.7935H482.591L481.99 76.644C480.922 78.3868 479.52 80.0625 477.784 81.6712C476.115 83.2799 474.045 84.5869 471.575 85.5924C469.171 86.5308 466.367 87 463.162 87ZM463.763 80.8668C467.302 80.8668 470.373 80.029 472.977 78.3532C475.647 76.6775 477.717 74.298 479.186 71.2147C480.721 68.1313 481.489 64.5453 481.489 60.4565C481.489 56.3677 480.721 52.7817 479.186 49.6984C477.717 46.615 475.647 44.2355 472.977 42.5598C470.373 40.8841 467.302 40.0462 463.763 40.0462C460.291 40.0462 457.22 40.8841 454.55 42.5598C451.879 44.2355 449.776 46.615 448.24 49.6984C446.772 52.7147 446.037 56.3007 446.037 60.4565C446.037 64.6123 446.805 68.2319 448.341 71.3152C449.876 74.3315 451.979 76.6775 454.65 78.3532C457.32 80.029 460.358 80.8668 463.763 80.8668Z" fill="#171717"/>
</g>
<defs>
<clipPath id="clip0_473_14">
<rect width="489" height="100" fill="white"/>
</clipPath>
</defs>
</svg>
