<svg width="100" height="100" viewBox="0 0 100 100" fill="none" xmlns="http://www.w3.org/2000/svg">
<path d="M0.758216 3.79833C0 5.28641 0 7.23442 0 11.1304V73.3871C7.47123 69.1591 8.11017 61.3446 8.74941 53.5264C8.91594 51.4897 9.08249 49.4527 9.36985 47.4788C10.9696 35.568 23.5124 30.402 34.4294 31.2335V31.2322C46.9969 31.547 59.9907 33.3896 72.4765 35.2595C73.8166 35.4343 75.1599 35.6538 76.5034 35.8733C77.9116 36.1033 79.3204 36.3335 80.7256 36.5123C81.5614 36.7321 82.4703 36.83 83.3862 36.9287C85.3259 37.1376 87.2969 37.35 88.6723 38.7304C91.0019 41.3958 88.3848 44.9844 85.2634 44.6585C83.326 44.4706 81.3917 44.4345 79.4548 44.3984C77.8795 44.3691 76.3024 44.3397 74.7206 44.2285C72.6382 44.1873 70.5451 44.1135 68.4485 44.0397C63.7434 43.8739 59.0204 43.7075 54.3625 43.9063C52.2051 43.915 50.6648 46.7589 52.9858 47.8803C54.7834 48.3864 56.6145 48.3864 58.4529 48.3863C59.6571 48.3862 60.8645 48.3862 62.0675 48.5284C63.6339 48.5813 65.2049 48.6487 66.778 48.7163L66.7791 48.7163C69.4828 48.8324 72.1931 48.9488 74.8978 48.9918C76.3897 49.0399 77.8817 49.1013 79.3737 49.1627L79.3748 49.1627C81.1553 49.236 82.9359 49.3093 84.7169 49.3599C85.7565 49.3896 86.7665 49.6573 87.7231 50.1505C89.8284 51.2372 90.0924 54.3339 88.5335 55.9386C86.7564 57.4547 84.394 57.4094 82.0644 57.3648C80.9307 57.3431 79.8047 57.3215 78.7578 57.4801C71.5347 58.0067 63.8395 59.2793 58.1183 64.055C53.6549 67.875 51.7571 73.6862 49.9822 79.1211L49.811 79.6449C47.6259 86.8735 45.5219 93.768 42.8739 100H88.8696C92.7656 100 94.7136 100 96.2017 99.2418C97.5106 98.5748 98.5748 97.5106 99.2418 96.2017C100 94.7136 100 92.7656 100 88.8696V11.1304C100 7.23442 100 5.28641 99.2418 3.79833C98.5748 2.48937 97.5106 1.42516 96.2017 0.758216C94.7136 0 92.7656 0 88.8696 0H11.1304C7.23442 0 5.28641 0 3.79833 0.758216C2.48937 1.42516 1.42516 2.48937 0.758216 3.79833Z" fill="#009BE1"/>
<path d="M24.6478 100C30.7763 94.6459 35.739 87.9933 38.9758 80.4875C39.0935 80.0736 39.3541 79.5424 39.63 78.9801C40.1387 77.9431 40.6996 76.8 40.5124 76.0898C40.3939 75.8107 40.3925 75.5136 40.391 75.2182C40.3892 74.8342 40.3874 74.4531 40.1283 74.1183C40.0378 73.9819 39.9981 73.8345 40.0316 73.6511C40.2732 71.8407 37.3352 72.8097 36.961 74.1703C33.9994 82.1827 29.5719 89.7341 23.2819 95.5842C21.5711 97.1984 19.7338 98.6512 17.8202 100H24.6478Z" fill="#009BE1"/>
<path d="M0.000128832 89.4993C1.70831 88.8262 3.42527 88.175 5.15052 87.5458C9.97947 85.7387 14.8875 84.1641 19.7945 82.5899L20.044 82.5098C22.6177 81.8023 22.5087 78.314 19.5706 78.3834C12.8988 80.0275 6.40837 82.3357 0 84.8481V88.8696C0 89.0854 0 89.2952 0.000128832 89.4993Z" fill="#009BE1"/>
<path fill-rule="evenodd" clip-rule="evenodd" d="M33.9411 40.1938C49.2658 40.1331 48.9102 63.2397 34.1295 63.122C18.9845 63.485 18.4145 40.024 33.9411 40.1938ZM34.0753 44.111C22.1088 44.5757 24.6528 61.4332 36.3021 58.9537C44.3405 56.0256 42.6813 44.1953 34.0753 44.111Z" fill="#009BE1"/>
</svg>
