<svg width="200" height="200" viewBox="0 0 200 200" fill="none" xmlns="http://www.w3.org/2000/svg">
<g clip-path="url(#clip0_483_3)">
<rect width="200" height="200" rx="16" fill="#061824"/>
<path d="M1.51643 7.59665C0 10.5728 0 14.4688 0 22.2609V146.774C14.9425 138.318 16.2203 122.689 17.4988 107.053C17.8319 102.979 18.165 98.9054 18.7397 94.9576C21.9392 71.1361 47.0247 60.804 68.8587 62.4669V62.4644C93.9938 63.0939 119.981 66.7792 144.953 70.519C147.633 70.8687 150.32 71.3075 153.007 71.7465C155.823 72.2066 158.641 72.6669 161.451 73.0245C163.123 73.4641 164.941 73.66 166.772 73.8573C170.652 74.2753 174.594 74.7 177.345 77.4607C182.004 82.7916 176.77 89.9688 170.527 89.317C166.652 88.9412 162.783 88.8691 158.91 88.7969C155.759 88.7381 152.605 88.6794 149.441 88.457C145.276 88.3745 141.09 88.227 136.897 88.0793C127.487 87.7478 118.041 87.4149 108.725 87.8127C104.41 87.83 101.33 93.5178 105.972 95.7606C109.567 96.7729 113.229 96.7727 116.906 96.7726C119.314 96.7724 121.729 96.7723 124.135 97.0568C127.268 97.1625 130.41 97.2974 133.556 97.4325L133.558 97.4326C138.966 97.6648 144.386 97.8975 149.796 97.9837C152.779 98.0797 155.763 98.2025 158.747 98.3254L158.75 98.3255C162.311 98.472 165.872 98.6186 169.434 98.7197C171.513 98.7792 173.533 99.3145 175.446 100.301C179.657 102.474 180.185 108.668 177.067 111.877C173.513 114.909 168.788 114.819 164.129 114.73C161.861 114.686 159.609 114.643 157.516 114.96C143.069 116.013 127.679 118.559 116.237 128.11C107.31 135.75 103.514 147.372 99.9644 158.242L99.622 159.29C95.2517 173.747 91.0439 187.536 85.7478 200H177.739C185.531 200 189.427 200 192.403 198.484C195.021 197.15 197.15 195.021 198.484 192.403C200 189.427 200 185.531 200 177.739V22.2609C200 14.4688 200 10.5728 198.484 7.59665C197.15 4.97875 195.021 2.85032 192.403 1.51643C189.427 0 185.531 0 177.739 0H22.2609C14.4688 0 10.5728 0 7.59665 1.51643C4.97875 2.85032 2.85032 4.97875 1.51643 7.59665Z" fill="#009BE1"/>
<path d="M49.2956 200C61.5525 189.292 71.4779 175.987 77.9517 160.975C78.1869 160.147 78.7081 159.085 79.26 157.96C80.2775 155.886 81.3992 153.6 81.0248 152.18C80.7877 151.621 80.7849 151.027 80.7821 150.436C80.7784 149.668 80.7748 148.906 80.2565 148.237C80.0756 147.964 79.9963 147.669 80.0632 147.302C80.5464 143.681 74.6704 145.619 73.9219 148.341C67.9987 164.365 59.1437 179.468 46.5638 191.168C43.1423 194.397 39.4677 197.302 35.6403 200H49.2956Z" fill="#009BE1"/>
<path d="M0.000257665 178.999C3.41661 177.652 6.85055 176.35 10.301 175.092C19.9589 171.477 29.775 168.328 39.589 165.18L40.0879 165.02C45.2354 163.605 45.0173 156.628 39.1412 156.767C25.7976 160.055 12.8167 164.671 0 169.696V177.739C0 178.171 0 178.59 0.000257665 178.999Z" fill="#009BE1"/>
<path fill-rule="evenodd" clip-rule="evenodd" d="M67.8823 80.3876C98.5316 80.2662 97.8203 126.479 68.2589 126.244C37.969 126.97 36.829 80.0481 67.8823 80.3876ZM68.1506 88.2221C44.2175 89.1515 49.3055 122.866 72.6042 117.907C88.681 112.051 85.3625 88.3906 68.1506 88.2221Z" fill="#009BE1"/>
</g>
<defs>
<clipPath id="clip0_483_3">
<rect width="200" height="200" rx="16" fill="white"/>
</clipPath>
</defs>
</svg>
