<svg width="200" height="200" viewBox="0 0 200 200" fill="none" xmlns="http://www.w3.org/2000/svg">
<rect width="200" height="200" rx="16" fill="#061824"/>
<path d="M37.9478 41.7479C37 43.608 37 46.043 37 50.913V128.734C46.339 123.449 47.1377 113.681 47.9368 103.908C48.1449 101.362 48.3531 98.8159 48.7123 96.3485C50.712 81.46 66.3905 75.0025 80.0367 76.0418V76.0403C95.7461 76.4337 111.988 78.737 127.596 81.0744C129.271 81.2929 130.95 81.5672 132.629 81.8416C134.39 82.1291 136.15 82.4168 137.907 82.6403C138.952 82.9151 140.088 83.0375 141.233 83.1608C143.657 83.422 146.121 83.6875 147.84 85.413C150.752 88.7447 147.481 93.2305 143.579 92.8231C141.158 92.5882 138.74 92.5432 136.319 92.498C134.349 92.4613 132.378 92.4246 130.401 92.2856C127.798 92.2341 125.181 92.1419 122.561 92.0496C116.679 91.8423 110.775 91.6343 104.953 91.8829C102.256 91.8938 100.331 95.4486 103.232 96.8504C105.479 97.4831 107.768 97.4829 110.066 97.4828C111.571 97.4828 113.081 97.4827 114.584 97.6605C116.542 97.7266 118.506 97.8109 120.472 97.8953L120.474 97.8954C123.853 98.0405 127.241 98.1859 130.622 98.2398C132.487 98.2998 134.352 98.3766 136.217 98.4534L136.218 98.4534C138.444 98.545 140.67 98.6366 142.896 98.6998C144.196 98.737 145.458 99.0716 146.654 99.6881C149.286 101.046 149.615 104.917 147.667 106.923C145.446 108.818 142.493 108.762 139.581 108.706C138.163 108.679 136.756 108.652 135.447 108.85C126.418 109.508 116.799 111.099 109.648 117.069C104.069 121.844 101.696 129.108 99.4777 135.901L99.2638 136.556C96.5323 145.592 93.9024 154.21 90.5924 162H148.087C152.957 162 155.392 162 157.252 161.052C158.888 160.219 160.219 158.888 161.052 157.252C162 155.392 162 152.957 162 148.087V50.913C162 46.043 162 43.608 161.052 41.7479C160.219 40.1117 158.888 38.7815 157.252 37.9478C155.392 37 152.957 37 148.087 37H50.913C46.043 37 43.608 37 41.7479 37.9478C40.1117 38.7815 38.7815 40.1117 37.9478 41.7479Z" fill="#009BE1"/>
<path d="M67.8097 162C75.4703 155.307 81.6737 146.992 85.7198 137.609C85.8668 137.092 86.1926 136.428 86.5375 135.725C87.1734 134.429 87.8745 133 87.6405 132.112C87.4923 131.763 87.4906 131.392 87.4888 131.023C87.4865 130.543 87.4843 130.066 87.1603 129.648C87.0472 129.477 86.9977 129.293 87.0395 129.064C87.3415 126.801 83.669 128.012 83.2012 129.713C79.4992 139.728 73.9648 149.168 66.1024 156.48C63.9639 158.498 61.6673 160.314 59.2752 162H67.8097Z" fill="#009BE1"/>
<path d="M37.0002 148.874C39.1354 148.033 41.2816 147.219 43.4382 146.432C49.4743 144.173 55.6094 142.205 61.7431 140.237L62.055 140.137C65.2721 139.253 65.1358 134.893 61.4633 134.979C53.1235 137.034 45.0105 139.92 37 143.06V148.087C37 148.357 37 148.619 37.0002 148.874Z" fill="#009BE1"/>
<path fill-rule="evenodd" clip-rule="evenodd" d="M79.4264 87.2423C98.5823 87.1664 98.1377 116.05 79.6618 115.902C60.7306 116.356 60.0181 87.0301 79.4264 87.2423ZM79.5941 92.1388C64.636 92.7197 67.8159 113.792 82.3776 110.692C92.4256 107.032 90.3516 92.2441 79.5941 92.1388Z" fill="#009BE1"/>
</svg>
